<?xml version="1.0"?>
<svg width="690" height="600" viewPort="0 0 700 600" version="1.1"
     xmlns="http://www.w3.org/2000/svg"
	xmlns:xlink="http://www.w3.org/1999/xlink">
	<image xlink:href="station.jpg"  width="690" height="460"/> 
	<def>
	
	<g id="relsy">
	<!--sleepers -->
	<rect x="10" y="183" width="15" height="60" fill="brown" stroke="black" stroke-width="1"/>
	<rect x="40" y="183" width="15" height="60" fill="brown" stroke="black" stroke-width="1"/>
	<rect x="70" y="183" width="15" height="60" fill="brown" stroke="black" stroke-width="1"/>
	<rect x="100" y="183" width="15" height="60" fill="brown" stroke="black" stroke-width="1"/>
	<rect x="130" y="183" width="15" height="60" fill="brown" stroke="black" stroke-width="1"/>
	<rect x="160" y="183" width="15" height="60" fill="brown" stroke="black" stroke-width="1"/>
	<rect x="190" y="183" width="15" height="60" fill="brown" stroke="black" stroke-width="1"/>
	<rect x="220" y="183" width="15" height="60" fill="brown" stroke="black" stroke-width="1"/>
	<rect x="250" y="183" width="15" height="60" fill="brown" stroke="black" stroke-width="1"/>
	<rect x="280" y="183" width="15" height="60" fill="brown" stroke="black" stroke-width="1"/>
	<rect x="310" y="183" width="15" height="60" fill="brown" stroke="black" stroke-width="1"/>
	<rect x="340" y="183" width="15" height="60" fill="brown" stroke="black" stroke-width="1"/>
	<rect x="370" y="183" width="15" height="60" fill="brown" stroke="black" stroke-width="1"/>
	<rect x="400" y="183" width="15" height="60" fill="brown" stroke="black" stroke-width="1"/>
	<rect x="430" y="183" width="15" height="60" fill="brown" stroke="black" stroke-width="1"/>
	<rect x="460" y="183" width="15" height="60" fill="brown" stroke="black" stroke-width="1"/>
	<rect x="490" y="183" width="15" height="60" fill="brown" stroke="black" stroke-width="1"/>
	<rect x="520" y="183" width="15" height="60" fill="brown" stroke="black" stroke-width="1"/>
	<rect x="550" y="183" width="15" height="60" fill="brown" stroke="black" stroke-width="1"/>
	<rect x="580" y="183" width="15" height="60" fill="brown" stroke="black" stroke-width="1"/>
	<rect x="610" y="183" width="15" height="60" fill="brown" stroke="black" stroke-width="1"/>
	<rect x="640" y="183" width="15" height="60" fill="brown" stroke="black" stroke-width="1"/>
	<rect x="670" y="183" width="15" height="60" fill="brown" stroke="black" stroke-width="1"/>
	<!-- rails -->
	<rect x="0" y="190" width="950" height="8" fill="grey" stroke="black" stroke-width="1"/>
	<rect x="0" y="227" width="950" height="8" fill="grey" stroke="black" stroke-width="1"/>
	</g>
	
	<g id="semafor">
		<rect x="30" y="90" width="8" height="85" fill="grey" stroke="black" stroke-width="1"/>
		<rect x="24" y="96" width="20" height="40" fill="black" stroke="black" stroke-width="1"/>
		<circle id="krcrug" cx="34" cy="106"  r="8" fill="red" stroke="black" stroke-width="0"/>
		<circle id="grcrug" cx="34" cy="126"  r="8" fill="green" opacity="0" stroke="black" stroke-width="0"/>
	</g>
	<g id="parovoz" >
	<g id="zakrep">
		<path fill="none" stroke="black" stroke-width="1" d="M300,160 a20,-15 0 0,0 20,-15" />
		<path fill="none" stroke="black" stroke-width="1" d="M320,181 a-20,-15 0 0,0 -20,-15" />
		<rect x="320" y="145" width="10" height="36" fill="grey" stroke="black" stroke-width="1"/>
	</g>
	<rect x="100" y="100" width="200" height="80" fill="grey" stroke="black" stroke-width="2"/>
	<circle cx="100" cy="140"  r="40" fill="grey" stroke="black" stroke-width="2"/>
	<rect x="101" y="101.5" width="100" height="77" fill="grey" stroke="grey" stroke-width="1"/>
	<circle cx="190" cy="100"  r="20" fill="grey" stroke="black" stroke-width="2"/>
	<rect x="220" y="20" width="80" height="80" fill="grey" stroke="black" stroke-width="2"/>
	<rect id="osv3" x="235" y="35" rx="10" ry="10" width="50" height="50" fill="yellow" stroke="black" stroke-width="2" />
	<rect x="120" y="20" width="40" height="16" fill="grey" stroke="black" stroke-width="2"/>
	<polyline points="120,36 130,100 150,100 160,36" stroke="black" stroke-width="2" fill="grey"/>
	<rect x="169" y="101.5" width="42" height="40" fill="grey" stroke="grey" stroke-width="1"/>
	<line x1="100" y1="100" x2="220" y2="100" stroke="black" stroke-width="1"/>
	<line x1="100" y1="100" x2="100" y2="180" stroke="black" stroke-width="1"/>
	<line x1="220" y1="100" x2="220" y2="180" stroke="black" stroke-width="1"/>
	<polyline points="100,180 100,220 55,220 100,180" stroke="black" stroke-width="2" fill="grey"/>
	<line x1="100" y1="180" x2="70" y2="220" stroke="black" stroke-width="2"/>
	<line x1="100" y1="180" x2="85" y2="220" stroke="black" stroke-width="2"/> 
	
	<g id="malkoleso1">
		<circle cx="124" cy="203"  r="22" fill="grey" stroke="black" stroke-width="2"/>
		<line x1="102" y1="203" x2="146" y2="203" stroke="black" stroke-width="1"/> 
		<line x1="124" y1="181" x2="124" y2="225" stroke="black" stroke-width="1"/> 
		<line x1="108" y1="187" x2="140" y2="219" stroke="black" stroke-width="1"/> 
		<line x1="108" y1="219" x2="140" y2="187" stroke="black" stroke-width="1"/> 
		<circle cx="124" cy="203"  r="2" fill="white" stroke="black" stroke-width="2"/>
	</g>
	<g id="koleso1">
		<circle cx="260" cy="191"  r="34" fill="grey" stroke="black" stroke-width="2"/>
		<circle cx="260" cy="191"  r="24" fill="grey" stroke="black" stroke-width="2"/>
		<line x1="243" y1="174" x2="260" y2="191" stroke="black" stroke-width="2"/> 
		<line x1="236" y1="191" x2="260" y2="191" stroke="black" stroke-width="2"/> 
		<line x1="260" y1="167" x2="260" y2="191" stroke="black" stroke-width="2"/> 
		
		<circle cx="260" cy="191"  r="3" fill="white" stroke="black" stroke-width="2"/>
		<polyline points="244,208 284,168 285,210 264,220 236,214" stroke="grey" stroke-width="2" fill="grey"/>
		<line x1="235" y1="215" x2="285" y2="167" stroke="black" stroke-width="2"/>
	</g>
	<use x="-78" y="0" xlink:href="#koleso1" />
	<g id="fara">
	<circle cx="100" cy="86"  r="10" fill="grey" stroke="black" stroke-width="1"/>
	
	<path fill="yellow" stroke="yellow" stroke-width="2" d="M90,86 a20,10 0 0,1 10,-10" />	
	<path fill="yellow" stroke="yellow" stroke-width="2" d="M100,96 a-20,-10 0 0,1 -10,-10" />
	<polyline points="90,86 100,96 100,76 90,86" stroke="yellow" stroke-width="1" fill="yellow"/>

	<line x1="101" y1="76" x2="101" y2="96" stroke="black" stroke-width="1"/>
	<line x1="100" y1="76" x2="100" y2="96" stroke="yellow" stroke-width="1"/>
	<polyline points="100,76 0,0 0,172 100,96" stroke="white" stroke-width="0" fill="yellow" opacity="0.3" id="svet" />
	</g>
	</g>
	<g id="vagon">
	<use x="270" y="0" xlink:href="#malkoleso1" />
	<use x="450" y="0" xlink:href="#malkoleso1" />
	<g id="zakrep2">
		<path fill="none" stroke="black" stroke-width="1" d="M340,181 a20,-15 0 0,1 20,-15" />
		<path fill="none" stroke="black" stroke-width="1" d="M360,160 a-20,-15 0 0,1 -20,-15" />
		<rect x="330" y="145" width="10" height="36" fill="grey" stroke="black" stroke-width="1"/>
	</g>
	<rect x="360" y="100" width="250" height="80" fill="saddlebrown" stroke="black" stroke-width="2"/>
	<g id="dver" >
		<rect x="372" y="120" rx="5" ry="5" width="44" height="60" fill="saddlebrown" stroke="black" stroke-width="2"/>
		<line x1="394" y1="120" x2="395" y2="180" stroke="black" stroke-width="2"/>
		<g id="osv2" >
		<rect x="375" y="124" rx="5" ry="5" width="12" height="30" fill="yellow" stroke="black" stroke-width="1"/>
		<rect x="397" y="124" rx="5" ry="5" width="12" height="30" fill="yellow" stroke="black" stroke-width="1"/>
		</g>
	</g>
	<use x="180" y="0" xlink:href="#dver" />
	<g id="okno" >
		<rect id="osv1" x="430" y="120" rx="10" ry="10" width="40" height="30" fill="yellow" stroke="black" stroke-width="2" />
		<line x1="450" y1="120" x2="450" y2="150" stroke="black" stroke-width="2"/>
		<line x1="430" y1="132" x2="470" y2="132" stroke="black" stroke-width="2"/>
	</g>
	<use x="69" y="0" xlink:href="#okno" />
	<rect x="350" y="85" width="270" height="15" fill="black" stroke="black" stroke-width="2"/>
	<use x="310" y="0" xlink:href="#zakrep" />
	<text x="430" y="170" stroke="none" fill="#000000" font-weight="bolder" font-family="Times New Roman" font-size="11px">
	<tspan>URALVAGONZAVOD</tspan></text>
	</g>
	<g id="poezdsvag">
	<use x="0" y="202" xlink:href="#parovoz" />
	<use x="0" y="202" xlink:href="#vagon" />
	<use x="310" y="202" xlink:href="#vagon" />
	</g>
	
	<g id="colesa" >
		<use x="0" y="201" xlink:href="#koleso1" />
		<use x="-78" y="201" xlink:href="#koleso2" />
		<use x="0" y="201" xlink:href="#malkoleso1" />
		<use x="270" y="201" xlink:href="#malkoleso2" />
		<use x="450" y="201" xlink:href="#malkoleso3" />
		<use x="580" y="201" xlink:href="#malkoleso4" />
		<use x="760" y="201" xlink:href="#malkoleso5" />
	</g>
	</def>
	<use x="0" y="200" xlink:href="#relsy" >
	</use>
	<use x="0" y="200" xlink:href="#semafor" >
	</use>
				
	<use xlink:href="#poezdsvag" >
	<animate attributeType="XML" attributeName="x" from="650" to="-900" dur="7s" repeatCount="indefinite"/> 
	</use>
				
	<animateTransform xmlns:xlink="http://www.w3.org/1999/xlink" xlink:href="#koleso1" 
		attributeName="transform" attributeType="XML" type="rotate" from="360 260 191" to="0 260 191" dur="1s" 
		begin="0s" repeatCount="indefinite" fill="freeze">
	</animateTransform>
	<animateTransform xmlns:xlink="http://www.w3.org/1999/xlink" xlink:href="#malkoleso1" 
		attributeName="transform" attributeType="XML" type="rotate" from="360 124 203" to="0 124 203" dur="1s" 
		begin="0s" repeatCount="indefinite" fill="freeze">
	</animateTransform>

  <animate 
           xlink:href="#krcrug"
           attributeName="opacity"
           from="1"
           to="0" 
           dur="0.7s"
           repeatCount="1"
           begin="0s"
           fill="freeze"
           id="changeColor"/>
	<animate 
           xlink:href="#grcrug"
           attributeName="opacity"
           from="0"
           to="1" 
           dur="0.7s"
           repeatCount="1"
           begin="0.5s"
           fill="freeze"
           id="changeColor"/>
	
	<animate 
           xlink:href="#svet"
           attributeName="opacity"
           from="0"
           to="0.3" 
           dur="2s"
           repeatCount="1"
           begin="0s"
           fill="freeze"
           id="changeColor"/>
	<text x="270" y="30" stroke="none" fill="#000000" font-weight="bolder" font-family="Times New Roman" font-size="18px">
	<tspan>Pochetnyi Vasilyi</tspan></text>
	<text x="312" y="190" stroke="none" fill="#0000CD" font-weight="bolder" font-family="Times New Roman" font-size="18px">
	<tspan>ITMO</tspan></text>
</svg>